<svg xmlns="http://www.w3.org/2000/svg" xmlns:xlink="http://www.w3.org/1999/xlink" version="1.1" id="Layer_1" x="0px" y="0px" enable-background="new 0 0 1024 944" xml:space="preserve" viewBox="84.96 101.81 926.23 790.56">
<path fill="#000000" opacity="1.000000" stroke="none" d=" M706.545776,474.512146   C697.271851,456.153046 679.255127,447.254517 659.422485,451.176361   C652.604431,452.524597 645.883850,454.365356 637.789856,456.298523   C641.201233,444.064941 641.181213,431.794891 649.443542,422.137360   C653.072266,417.896027 658.048767,416.085724 663.302063,414.716217   C674.189880,411.877838 685.447144,412.292664 696.476074,410.737701   C697.439880,410.601807 698.513123,410.757782 699.347839,409.603760   C699.859070,407.206757 698.052856,405.462006 696.964722,403.496765   C685.650391,383.061768 675.377136,362.194489 668.688293,339.682648   C658.274109,304.633270 664.088135,271.235382 678.225281,238.529724   C692.416870,205.697998 712.679810,177.359528 740.404602,154.624161   C761.864868,137.025940 786.853821,128.540665 814.371643,126.638893   C842.334167,124.706390 868.445312,132.059082 894.256836,141.563751   C923.327454,152.268478 952.618713,162.320755 983.367798,167.195023   C990.596069,168.340836 997.901917,169.005829 1005.250793,168.947403   C1007.191589,168.931961 1009.235474,168.560318 1010.891296,169.629425   C1011.746094,171.418961 1010.570374,172.385696 1009.844543,173.411728   C988.550842,203.514084 959.410706,221.723434 923.697815,229.610779   C911.880981,232.220581 899.825562,230.863800 887.882202,229.823364   C879.273560,229.073425 870.683044,228.116577 862.075134,227.356995   C860.491150,227.217239 858.734741,226.823059 856.671692,228.665924   C863.411072,243.026855 871.823364,257.011261 875.734314,273.590210   C871.594604,272.305176 869.129272,269.795502 866.334778,267.899170   C848.164551,255.568756 829.194763,244.601074 807.509094,240.106216   C773.069702,232.967834 746.957642,240.664169 725.996826,271.018494   C714.608215,287.510773 705.244507,305.241425 700.930725,325.082245   C697.500061,340.860809 700.689331,355.999969 705.891846,370.648407   C707.378540,370.808929 707.777344,370.234314 708.028442,369.635254   C713.974976,355.448944 724.253601,344.600616 735.121521,334.155792   C741.846191,327.692871 748.392883,321.039062 754.864929,314.322083   C757.121216,311.980408 758.812256,311.666931 760.854004,314.410522   C762.343018,316.411469 763.965515,318.333466 765.691589,320.134308   C779.026001,334.046509 777.231323,348.105377 766.308044,362.329132   C762.057617,367.863678 757.404236,373.151306 752.456360,378.070648   C747.147339,383.349213 746.369995,389.198151 747.670166,396.231842   C750.052490,409.119659 753.272339,421.939423 752.364136,435.252319   C752.019775,440.300903 750.592224,445.097443 749.111877,449.833374   C742.255249,471.769470 737.735291,494.327789 731.248352,516.354004   C725.032043,537.461426 716.380371,557.205261 701.149963,573.768677   C687.108887,589.038696 669.520325,595.899170 649.592468,598.230713   C644.968140,598.771667 640.295715,599.276367 635.656006,599.194763   C631.709106,599.125427 629.654236,600.424438 628.407166,604.269958   C625.327148,613.767090 622.092651,623.233093 616.954163,631.898804   C604.462891,652.964844 586.226379,663.578247 561.516357,662.476379   C552.375183,662.068848 543.234314,661.652832 534.091553,661.284424   C532.461670,661.218750 530.761169,660.824097 528.987549,661.946289   C528.738037,666.234985 531.156555,669.772217 533.008911,673.360229   C541.814026,690.416016 555.260193,703.577759 569.443970,716.066040   C576.158508,721.977905 583.017395,727.725891 589.712891,733.464111   C588.725098,736.015747 586.711853,736.254883 585.164062,737.031006   C561.634949,748.829285 537.880249,760.222473 515.621826,774.365173   C495.870728,786.914734 476.810181,800.488281 462.621521,819.441101   C452.948975,832.361511 444.421204,846.135742 435.289581,859.465210   C428.810303,868.923096 428.711121,868.901550 421.411682,860.083923   C417.271973,855.083191 413.017700,850.204895 407.829987,845.515991   C402.925476,848.941711 399.693665,853.857117 395.980896,858.175415   C387.404755,868.149902 379.243408,878.461609 369.840515,887.729370   C366.944580,890.583679 364.508911,891.314453 361.131622,889.344299   C360.989532,889.261353 360.813324,889.237976 360.668091,889.159119   C353.055847,885.026306 345.679626,883.900818 338.827026,890.723022   C338.146698,891.400391 337.132141,891.772583 336.223999,892.177063   C335.803925,892.364197 335.266693,892.288269 334.301208,892.374695   C331.994171,884.437195 329.219269,876.425049 329.643616,868.164917   C330.009338,861.045166 335.284363,855.539978 338.950287,849.628967   C341.287903,845.859802 343.970978,842.304871 346.939636,838.017761   C338.632782,838.145813 331.564301,839.956665 324.581970,841.868591   C320.058258,843.107178 317.217804,842.242249 315.655731,837.694275   C315.174408,836.292725 314.279114,835.035706 313.597168,833.700439   C306.686188,820.169373 310.937927,806.317017 324.218964,798.779968   C331.631622,794.573303 340.119598,792.702881 347.316589,788.084900   C349.853607,786.456970 354.484192,785.253235 353.296082,781.797241   C352.097137,778.309814 348.081879,781.250061 345.299927,781.207703   C342.547211,781.165833 339.902435,783.246765 336.468170,781.344910   C338.724976,769.214539 341.585876,757.294556 352.776978,749.798889   C359.121521,745.549438 366.149323,744.834717 373.071686,748.946350   C381.374939,753.878052 389.666321,758.831299 397.905701,763.868652   C410.686615,771.682739 423.873596,773.684570 438.506866,768.992859   C458.527496,762.573730 477.579285,754.701416 493.505280,740.508179   C496.400024,737.928406 498.790497,734.952271 501.202850,732.003418   C504.154297,728.395691 501.487732,720.704163 496.773956,718.746094   C485.507721,714.066223 473.525665,711.734497 461.898193,708.238525   C452.803040,705.503906 443.727203,702.750916 435.102753,698.720703   C421.950867,692.574585 411.204102,683.325623 403.046936,671.531494   C388.443237,650.416748 390.565826,619.356384 407.550568,598.906067   C424.140076,578.931641 445.918335,572.329224 471.030670,575.248535   C478.609314,576.129700 486.073181,577.976685 493.606201,579.285950   C495.615875,579.635193 498.096619,580.971191 499.484985,578.485352   C500.636475,576.423584 498.892822,574.721558 497.696503,573.147278   C491.114746,564.485901 482.621246,558.156555 473.089966,553.119995   C461.709259,547.106140 449.515778,543.069275 437.544495,538.478271   C423.350067,533.034607 409.486908,526.954163 398.202972,516.293030   C386.612030,505.341797 387.209686,492.671234 399.973358,482.845947   C413.013947,472.807556 428.370758,469.366638 444.279175,467.713135   C461.163147,465.958252 478.188416,466.187103 495.057312,464.048340   C509.791077,462.180267 523.425537,457.008087 536.832520,450.996033   C538.934387,450.053497 540.899963,448.666656 544.050842,448.731506   C546.473267,455.517212 548.947937,462.520325 551.471558,469.505798   C560.814331,495.367126 572.385925,520.021362 591.017029,540.692627   C600.110046,550.781372 610.498718,559.425415 622.643250,565.628052   C644.121948,576.597961 659.588745,574.631836 677.654358,558.612183   C695.056519,543.180969 704.732727,523.481689 708.685425,500.773163   C710.218079,491.967926 710.795349,483.234833 706.545776,474.512146  z"/>
<path fill="#000000" opacity="1.000000" stroke="none" d=" M525.723511,423.724731   C521.983948,424.025787 522.279785,426.766022 522.228577,428.961548   C522.104309,434.290649 522.302673,439.626556 522.259705,444.958771   C522.245544,446.717682 522.829956,448.621399 521.500671,450.232086   C519.315979,450.833832 518.087891,449.134827 516.652954,448.169067   C506.978912,441.657990 497.313843,435.131287 487.747559,428.463776   C485.004120,426.551666 482.847809,426.711884 480.091064,428.555298   C470.266083,435.125244 460.728729,442.107178 450.492737,448.092865   C432.951813,458.350220 413.916290,462.981934 393.884033,464.300201   C386.562042,464.782043 379.330627,465.973267 372.204163,467.557526   C366.717499,468.777252 363.509033,473.444000 359.871552,477.326019   C356.519196,480.903778 354.113159,485.366974 350.236084,488.359558   C348.203979,487.242523 348.304230,485.551483 348.190491,484.184998   C345.568207,452.687073 345.572968,421.454285 353.877655,390.492828   C362.598816,357.978699 382.048645,334.044403 409.604889,315.817291   C425.488983,305.310730 442.470459,296.793701 459.252411,287.911224   C469.268555,282.609772 479.149536,277.081207 488.993042,271.466034   C517.254517,255.344360 532.519653,230.199234 539.696899,199.311279   C542.188049,188.590149 543.950562,177.781052 544.167175,166.741394   C544.207703,164.673080 544.111511,162.437439 545.419983,160.619019   C547.082886,160.398636 547.503357,161.706024 548.094543,162.607895   C564.214722,187.201431 576.161987,213.554962 582.522217,242.408142   C589.628540,274.645844 586.778870,305.790955 574.263550,336.335480   C568.341370,350.789032 563.452759,365.643585 561.050781,381.247711   C558.951599,394.885101 560.606201,407.734039 566.757080,420.054016   C569.563965,425.675964 572.268921,431.348816 575.665405,438.323792   C557.678711,435.267914 541.939331,429.320312 525.723511,423.724731  z"/>
<path fill="#000000" opacity="1.000000" stroke="none" d=" M310.437317,681.510315   C293.024139,687.373962 277.367889,695.970398 261.292664,706.082397   C262.846375,700.288879 264.314514,695.753418 265.258148,691.111328   C267.641052,679.388306 259.888702,667.853027 248.168564,665.560120   C243.324173,664.612305 239.400879,666.808899 235.912842,669.889526   C231.006577,674.222656 226.992874,679.409241 223.341385,684.733887   C217.174759,693.726013 208.315475,697.473450 198.179428,699.298828   C195.886810,699.711670 193.491577,699.826416 191.318787,700.582153   C184.720551,702.877075 179.464493,701.499878 174.214645,696.663269   C170.598038,693.331360 169.348160,689.981873 168.400558,685.304321   C166.392548,675.392334 169.859894,667.424377 174.797958,659.512817   C175.816040,657.881775 177.140732,656.271301 177.061829,653.554993   C166.182129,655.908569 155.950684,659.084412 148.933380,668.194763   C146.545090,671.295471 144.931686,671.448303 142.273651,668.894958   C138.068665,664.855591 133.743561,660.985046 130.620285,655.942322   C119.609215,638.164062 129.583923,616.846985 150.225769,613.573853   C160.351624,611.968201 170.105301,614.026733 179.981613,615.231567   C181.615997,615.430969 183.216736,615.937866 184.887405,615.355957   C185.255295,612.994751 183.367981,612.044250 182.226837,610.773865   C173.989792,601.604187 165.745209,592.439453 157.355484,583.410217   C155.165070,581.052795 155.098145,578.988647 156.468079,576.245422   C167.259369,554.636047 197.086563,548.502991 215.431671,564.199097   C221.228699,569.159058 224.209808,575.773560 226.403488,582.877197   C229.595398,593.213318 230.969223,603.974915 234.086761,614.356079   C236.454056,622.238953 241.070816,627.551147 248.412231,630.519653   C261.465576,635.797852 274.712677,640.300903 289.127594,636.595825   C291.055664,636.100281 292.960785,635.451172 294.801910,634.692017   C306.482178,629.876587 308.648987,625.661194 307.266785,613.158508   C306.006989,601.763000 303.764313,590.448120 303.726685,578.942078   C303.637115,551.553772 329.432953,528.235962 356.673676,530.486816   C369.088837,531.512695 379.756561,536.638733 389.967438,543.018982   C399.386505,548.904358 408.188141,555.692200 417.629944,563.168274   C412.815094,566.446655 408.614349,569.298401 404.422333,572.162903   C392.430054,580.357422 382.156952,590.258850 375.239288,603.144836   C364.642395,622.884338 364.098969,643.522888 370.577423,664.624146   C371.553833,667.804382 372.595825,670.964417 373.563782,674.147095   C373.698944,674.591614 373.582458,675.112549 373.582458,676.592224   C352.196289,672.832947 331.279022,674.664612 310.437317,681.510315  z"/>
<path fill="#000000" opacity="1.000000" stroke="none" d=" M234.503510,234.519226   C254.038986,265.295105 281.973511,285.423187 313.981415,300.613220   C329.682983,308.064728 346.140381,313.387299 362.971222,317.605438   C364.412933,317.966736 365.958801,318.063385 366.911316,319.779419   C366.738037,320.251831 366.636780,320.940491 366.277893,321.446381   C356.526825,335.191101 348.043701,349.708130 340.102386,364.547363   C338.902405,366.789734 337.347260,367.468384 334.903564,367.442719   C321.407013,367.300690 307.908295,367.208374 294.411957,367.313019   C290.905334,367.340149 289.014130,365.972046 288.581573,362.647217   C287.248566,352.400757 281.065338,346.910492 271.638855,343.443420   C261.345581,339.657501 251.436035,334.827637 241.951492,329.187439   C232.374527,323.492279 227.596130,314.172943 222.833817,304.784668   C221.855148,302.855316 220.871002,300.909576 220.124329,298.884766   C214.657974,284.061279 203.766083,275.557861 188.888794,271.253143   C180.919846,268.947296 180.465927,268.544861 181.215393,260.561646   C182.758118,244.128540 173.589691,233.900574 161.538589,225.470108   C150.435287,217.702667 137.541260,214.128189 124.428894,211.364441   C121.340973,210.713593 118.292816,209.867828 115.196465,209.265396   C113.021126,208.842133 111.485466,207.658875 110.699242,205.709686   C107.297585,197.276443 101.421356,191.750244 92.438934,189.679001   C91.520569,189.467270 90.536232,188.975906 90.057228,187.146317   C101.733253,178.049652 115.495842,171.795731 128.310730,164.058441   C127.019043,161.366516 124.807304,160.737488 122.978783,159.739502   C110.805611,153.095444 103.298813,142.594238 98.121910,130.096008   C96.833305,126.985054 97.242302,125.032059 100.627953,123.354988   C108.818550,119.297821 116.527260,114.258171 125.703285,112.405121   C135.829559,110.360176 146.627747,114.923660 151.923264,123.725304   C155.136749,129.066391 157.276520,134.942978 158.483292,140.926254   C160.109619,148.989777 165.437225,152.913666 173.088577,156.221481   C174.929520,139.906113 180.694778,125.314583 190.463226,111.302010   C199.508362,118.833435 210.065247,124.031380 215.633102,134.616776   C220.240128,143.375427 217.889053,152.911560 217.640579,162.151672   C217.114334,181.722427 217.295410,201.182907 226.168610,219.315506   C228.653595,224.393631 231.580276,229.255600 234.503510,234.519226  z"/>
<path fill="#000000" opacity="1.000000" stroke="none" d=" M495.568359,233.636688   C480.120850,244.475494 462.762390,248.768600 444.818207,251.293350   C421.881683,254.520554 398.673187,254.075027 375.656403,256.295654   C365.594757,257.266357 365.566071,257.065033 362.339661,247.134766   C361.834961,245.581421 361.454102,243.987823 360.902954,242.006577   C365.958221,240.180603 371.007568,240.669373 375.857361,240.049820   C381.130646,239.376175 386.413300,238.890259 391.647308,237.852005   C404.104858,235.380829 412.616058,228.448486 417.136261,216.474976   C422.788818,201.501846 424.144318,186.639755 415.956329,172.173584   C409.384430,160.562698 397.036713,155.178482 383.777588,156.769043   C371.432190,158.250046 359.865967,162.508972 347.995453,165.705811   C345.823914,166.290619 343.654144,167.482269 340.617584,166.068527   C345.359344,154.197464 348.528717,141.937607 362.914581,136.937958   C386.335846,128.798172 409.501648,119.903862 432.640839,110.979370   C446.649506,105.576401 460.153381,108.473312 473.721161,112.281021   C480.131317,114.079994 486.537048,115.820435 493.081787,117.114807   C501.135376,118.707596 508.575287,117.760239 515.544006,113.259125   C521.372803,109.494286 527.309509,105.896461 533.856201,101.814522   C536.232666,110.942375 538.438599,119.373894 538.234619,128.218018   C538.207520,129.391983 537.173950,130.622696 536.409912,131.685928   C533.009521,136.417831 529.945496,141.477661 526.003723,145.715683   C518.606384,153.669052 518.414185,162.915161 519.717346,172.755264   C520.939575,181.985168 522.120300,191.246063 520.874939,200.583420   C519.008057,214.580948 508.706879,222.609879 499.128876,231.127930   C498.140503,232.006943 496.954376,232.663635 495.568359,233.636688  z"/>
<path fill="#000000" opacity="1.000000" stroke="none" d=" M304.008606,407.875366   C312.181213,406.833099 319.346008,403.505493 326.931580,401.680573   C328.702301,404.631409 327.419067,407.293274 327.240631,409.801605   C326.057312,426.438141 325.768860,443.073242 327.095428,459.702209   C327.467194,464.362335 325.937958,466.051178 321.125214,466.483948   C304.721069,467.958954 289.034363,464.421539 273.414978,460.364899   C264.403351,458.024414 255.406281,455.499115 246.632828,452.404419   C236.587006,448.860962 227.301285,450.404572 218.238266,455.132843   C210.269821,459.290070 202.432541,463.698639 194.466507,467.860626   C189.160736,470.632690 188.531998,470.209229 187.591949,464.197327   C186.949966,460.091614 186.560776,455.916412 185.532440,451.907227   C183.318588,443.276093 177.909866,440.420013 169.369110,443.015808   C165.832352,444.090790 162.212967,445.438599 159.656433,447.987579   C151.267685,456.351776 140.958893,459.466766 129.542221,460.243805   C125.908539,460.491150 122.263603,461.116272 118.716896,461.959869   C114.364616,462.994995 112.350716,461.117340 111.980278,457.090668   C111.353424,450.276855 111.182388,443.455353 113.068390,436.768982   C115.280174,428.927612 117.430977,421.066467 119.821953,413.279572   C120.702568,410.411591 119.886887,409.049957 117.210594,407.965759   C108.891098,404.595520 100.176186,403.601898 91.329742,403.289459   C84.745644,403.056915 84.367233,402.695099 85.381104,396.330444   C86.060478,392.065613 86.898605,387.826324 87.613571,383.566864   C88.702415,377.079956 92.588928,372.945801 98.362503,370.141907   C103.939362,367.433533 109.795265,365.531433 115.710022,363.845612   C119.664330,362.718567 120.088966,360.827484 118.659966,357.253448   C115.448410,349.221100 112.586449,341.048492 109.614265,332.921234   C108.994247,331.225830 108.137161,329.543213 108.681297,327.639069   C129.742859,322.186584 143.840530,322.026001 157.389328,336.832733   C163.743164,343.776489 167.859116,352.296814 171.421417,360.905884   C178.113068,377.077759 189.393753,388.060608 205.785355,394.302460   C215.120300,397.857178 224.295380,401.918884 233.983536,404.326569   C256.915894,410.025726 280.055359,413.204803 304.008606,407.875366  z"/>
<path fill="#000000" opacity="1.000000" stroke="none" d=" M398.834198,217.781311   C372.420135,220.725082 346.675079,226.411499 320.224396,226.683609   C304.924286,226.841019 291.252136,223.603394 279.182892,214.130402   C275.170837,210.981354 271.145020,207.849808 266.908691,204.540924   C269.858917,201.556183 273.116455,202.686966 275.872528,202.292191   C293.666168,199.743362 311.059540,195.109909 328.796722,192.329498   C337.328156,190.992126 345.905334,189.509888 354.504700,189.165680   C362.977417,188.826523 370.840698,191.877609 377.903625,196.677521   C385.248413,201.668961 391.521698,207.880310 397.702423,214.188507   C398.588318,215.092651 399.860565,215.936646 398.834198,217.781311  z"/>
</svg>