<?xml version="1.0" encoding="UTF-8" standalone="no"?>
<!DOCTYPE svg PUBLIC "-//W3C//DTD SVG 1.1//EN" "http://www.w3.org/Graphics/SVG/1.1/DTD/svg11.dtd">
<svg width="100%" height="100%" viewBox="0 0 523 127" version="1.1" xmlns="http://www.w3.org/2000/svg" xmlns:xlink="http://www.w3.org/1999/xlink" xml:space="preserve" xmlns:serif="http://www.serif.com/" style="fill-rule:evenodd;clip-rule:evenodd;stroke-linecap:round;stroke-linejoin:round;stroke-miterlimit:1.5;">
    <g transform="matrix(1,0,0,1,-363.287,-536.62)">
        <g transform="matrix(1,0,0,1,1.75776,230.859)">
            <g transform="matrix(0.998631,-0.0523146,0.0523146,0.998631,-18.7144,13.9456)">
                <path d="M404.346,347.899C404.792,346.264 408.112,338.124 406.654,335.207C402.749,327.397 382.745,340.591 379.539,344.437C371.257,354.376 360.082,374.647 362.809,388.282C365.829,403.382 384.463,395.473 391.077,388.859" style="fill:none;stroke:white;stroke-width:3.38px;"/>
            </g>
            <g transform="matrix(1,0,0,1,0.84609,-6.67981)">
                <path d="M422.23,336.361C421.501,336.103 417.582,347.783 417.038,349.052C413.114,358.207 411.303,367.955 408.961,377.321C407.998,381.173 405.5,386.067 405.5,390.012C405.5,390.62 404.923,391.743 404.923,391.743C404.923,391.743 407.074,386.286 408.384,383.666C412.945,374.546 417.316,369.97 425.691,365.783C426.5,365.378 431.098,363.113 432.037,364.052C438.342,370.356 424.664,384.947 430.883,391.166C433.737,394.02 441.302,387.128 442.998,387.128" style="fill:none;stroke:white;stroke-width:3.38px;"/>
            </g>
            <g transform="matrix(1,0,0,1,0.84609,-6.67981)">
                <path d="M462.036,363.475C460.079,363.475 459.234,367.842 458.575,369.821C456.764,375.252 455.018,380.813 452.806,385.974C452.192,387.407 451.652,389.585 451.652,391.166C451.652,391.959 450.514,394.034 451.075,393.474C451.893,392.655 451.652,391.595 451.652,390.589" style="fill:none;stroke:white;stroke-width:3.38px;"/>
            </g>
            <g transform="matrix(1,0,0,1,0.84609,-6.67981)">
                <path d="M464.344,348.475C463.935,348.067 462.992,347.899 463.767,347.899" style="fill:none;stroke:white;stroke-width:3.38px;"/>
            </g>
            <g transform="matrix(1,0,0,1,0.137187,-0.224402)">
                <path d="M477.189,360.59C472.284,362.416 472.146,372.099 469.536,377.321C469.273,377.846 467.213,384.228 466.651,383.666C466.186,383.201 470.39,376.617 470.69,376.167C472.785,373.024 485.264,355.762 490.304,358.283C494.716,360.488 486.959,378.244 488.574,383.09C490.252,388.126 499.798,384.662 502.419,383.09C502.914,382.793 507.356,380.205 505.881,380.205" style="fill:none;stroke:white;stroke-width:3.38px;"/>
            </g>
            <g transform="matrix(1,0,0,1,1.0824,0.0695071)">
                <path d="M537.033,363.475C534.653,346.81 508.583,370.702 515.688,381.359C520.78,388.996 535.155,374.154 537.033,370.398C538.285,367.893 539.341,362.321 539.341,362.321C539.341,362.321 538.187,365.783 537.61,367.513C536.362,371.257 535.182,375.264 534.149,379.051C530.156,393.691 525.905,407.839 519.726,421.742C517.736,426.22 512.893,433.334 507.034,429.819C500.407,425.842 497.895,415.416 504.15,410.204C512.95,402.871 526.392,403.121 536.456,398.089" style="fill:none;stroke:white;stroke-width:3.38px;"/>
            </g>
            <g transform="matrix(1,0,0,1,-1,-1)">
                <path d="M609.723,316.169C604.071,334.538 600.699,354.305 593.57,372.128C591.727,376.735 587.006,389.218 587.801,390.012C588.43,390.641 593.423,389.04 594.147,388.859C601.113,387.117 609.392,387.705 616.646,387.705" style="fill:none;stroke:white;stroke-width:3.38px;"/>
            </g>
            <path d="M651.837,364.513C651.837,358.736 645.338,358.033 639.722,359.437C633.229,361.06 624.896,376.111 627.03,382.513C629.814,390.864 648.102,375.134 650.106,372.128C651.919,369.408 653.721,364.475 653.721,364.475C653.721,364.475 653.125,367.686 652.414,369.821C651.031,373.968 649.192,381.43 651.837,385.397C654.862,389.935 667.413,388.796 667.413,383.513" style="fill:none;stroke:white;stroke-width:3.38px;"/>
            <g transform="matrix(1,0,0,1,4.07187,-3.3493)">
                <path d="M680.105,361.167C678.753,365.562 677.354,369.568 676.066,373.859C675.254,376.566 674.071,379.27 673.182,381.936C672.143,385.053 669.721,391.166 669.721,391.166C669.721,391.166 670.072,390 670.297,389.435C671.385,386.715 672.439,383.999 673.759,381.359C676.463,375.951 679.43,371.682 682.989,366.936C684.014,365.57 688.324,361.239 690.489,362.321C694.976,364.565 691.401,376.483 689.912,380.205C689.792,380.505 688.329,386.551 688.758,386.551C690.369,386.551 692.802,380.595 693.527,379.628C696.869,375.173 702.343,366.498 707.95,364.629C719.066,360.923 706.829,384.886 709.104,389.435C712.198,395.624 726.411,390.209 726.411,384.243" style="fill:none;stroke:white;stroke-width:3.38px;"/>
            </g>
            <g transform="matrix(0.999001,-0.044682,0.044682,0.999001,-28.9496,29.4978)">
                <path d="M806.577,314.307C798.537,334.406 793.109,351.225 787.408,372.128C786.901,373.99 782.768,390.564 783.37,391.166C784.066,391.862 788.712,391.166 789.716,391.166C795.55,391.166 800.81,392.897 806.446,392.897" style="fill:none;stroke:white;stroke-width:3.38px;"/>
            </g>
            <g transform="matrix(0.999001,-0.044682,0.044682,0.999001,-27.8165,32.4501)">
                <path d="M840.483,370.398C838.478,369.088 834.397,365.269 831.83,365.783C825.584,367.032 816.225,378.963 818.561,385.974C820.948,393.135 837.02,379.399 838.753,377.321C841.024,374.596 841.75,370.285 841.637,370.398C838.397,373.638 835.288,380.77 836.445,385.397C837.519,389.691 847.471,389.916 850.291,387.705" style="fill:none;stroke:white;stroke-width:3.38px;"/>
            </g>
            <g transform="matrix(0.999001,-0.044682,0.044682,0.999001,-30.2647,37.1617)">
                <path d="M869.175,364.936C866.753,369.434 857.056,388.116 869.905,385.974C875.888,384.977 881.338,380.31 885.482,376.167C886.816,374.832 888.671,372.673 889.52,370.975C889.657,370.7 891.251,367.677 891.251,368.09C891.251,374.774 882.725,380.59 885.482,388.859C887.271,394.227 891.251,391.663 895.586,390.217" style="fill:none;stroke:white;stroke-width:3.38px;"/>
            </g>
        </g>
    </g>
</svg>
